<svg xmlns="http://www.w3.org/2000/svg" viewBox="0 0 40 41"><title>123</title><g id="icons"><path d="M33.54,23.64a2,2,0,0,0-2.78-.34l-5.61,4.4a1.63,1.63,0,0,1-1,.33h-4a1,1,0,0,1,0-2h3.36a2,2,0,0,0,0-4H15.29a4.72,4.72,0,0,0-2.93,1L9.61,25.28a.38.38,0,0,0-.07.55l5.34,6.76a.42.42,0,0,0,.31.15l6.46,0,1.79,0a4.77,4.77,0,0,0,3-1l6.78-5.37A2,2,0,0,0,33.54,23.64Z"/><path d="M8,27.06A.4.4,0,0,0,7.43,27L6.19,28a.4.4,0,0,0-.07.55l5.22,6.6a.39.39,0,0,0,.55.06l1.25-1a.39.39,0,0,0,.06-.55ZM23.21,5.72a7,7,0,1,0,7,7A7,7,0,0,0,23.21,5.72Zm-.39,5.63,1.61.83a2.44,2.44,0,0,1,1.3,2.59,2.37,2.37,0,0,1-1.39,1.82v.21a1,1,0,0,1-2,0v-.15A2.93,2.93,0,0,1,20.59,15a1,1,0,0,1,1.82-.79.94.94,0,0,0,1,.57.44.44,0,0,0,.41-.37.49.49,0,0,0-.25-.51l-1.62-.83a2.44,2.44,0,0,1-1.28-2.64,2.38,2.38,0,0,1,1.73-1.89V8.43a1,1,0,1,1,2,0V8.8a2.89,2.89,0,0,1,1.41,1.45,1,1,0,1,1-1.82.79,1,1,0,0,0-.95-.57.43.43,0,0,0-.4.37A.44.44,0,0,0,22.82,11.35Z"/></g></svg>