<svg xmlns="http://www.w3.org/2000/svg" viewBox="0 0 40 41"><title>123</title><g id="icons"><path d="M31,9.78A10.25,10.25,0,0,0,15.2,22.71l-2,2-.47-.48a.37.37,0,0,0-.52,0l-5.95,6a.72.72,0,0,0,0,1L9,34a.72.72,0,0,0,1,0l6-5.95a.37.37,0,0,0,0-.52l-.48-.47,1.94-1.94A10.25,10.25,0,0,0,31,9.78ZM28.9,22.21a7.33,7.33,0,0,1-10.35,0,7.32,7.32,0,0,1,5.18-12.5,7.32,7.32,0,0,1,5.17,12.5Z"/><path d="M24.41,16.12H23a.46.46,0,0,1-.45-.46.45.45,0,0,1,.45-.45h2.74a.92.92,0,1,0,0-1.83H24.64v-.46a.92.92,0,0,0-1.83,0v.48A2.28,2.28,0,0,0,23,18h1.37a.45.45,0,1,1,0,.9H21.67a.92.92,0,0,0,0,1.83h1.14v.46a.92.92,0,0,0,1.83,0v-.48a2.28,2.28,0,0,0-.23-4.54Z"/></g></svg>