<svg xmlns="http://www.w3.org/2000/svg" viewBox="0 0 40 41"><title>123</title><g id="icons"><path d="M13.61,19.37a7.9,7.9,0,1,0,7.89,7.9A7.9,7.9,0,0,0,13.61,19.37Zm-1.39,5.56a.94.94,0,0,1,0,1.88H12v1.13h.19a.94.94,0,1,1,0,1.88h-.17a1.31,1.31,0,0,0,2.61-.19.94.94,0,0,1,1.88,0,3.19,3.19,0,0,1-6.37.19H10a.94.94,0,0,1,0-1.88h.19V26.81H10a.94.94,0,1,1,0-1.88h.21a3.19,3.19,0,0,1,6.37.19.94.94,0,1,1-1.88,0,1.31,1.31,0,0,0-2.61-.19ZM9.61,18.31h.13a.94.94,0,0,0,.93-.8,7.51,7.51,0,0,1,3.47-5.3l.31.68a.6.6,0,0,0,1.07,0l1.33-2.46a.6.6,0,0,0-.39-.87L13.73,9a.6.6,0,0,0-.68.84l.31.68a9.38,9.38,0,0,0-4.55,6.74A.94.94,0,0,0,9.61,18.31Z"/><path d="M26.39,5.84a7.9,7.9,0,1,0,7.89,7.89A7.89,7.89,0,0,0,26.39,5.84Zm-.52,6.38,1.74.89a2.49,2.49,0,0,1,1.33,2.66,2.41,2.41,0,0,1-1.5,1.89V18a.94.94,0,1,1-1.88,0v-.25A3,3,0,0,1,23.65,16a.94.94,0,1,1,1.72-.75,1.16,1.16,0,0,0,1.16.69h.09a.56.56,0,0,0,.47-.49.64.64,0,0,0-.34-.68L25,13.89a2.52,2.52,0,0,1-1.32-2.7,2.44,2.44,0,0,1,1.87-2V9a.94.94,0,0,1,1.88,0v.46A3,3,0,0,1,29,11a.94.94,0,0,1-.49,1.24.93.93,0,0,1-1.23-.49A1.17,1.17,0,0,0,26.09,11a.61.61,0,0,0-.55.5A.62.62,0,0,0,25.87,12.22Zm4.9,10.84a.94.94,0,0,0-1.07.79,7.52,7.52,0,0,1-3.48,5.3l-.39-.78a.6.6,0,0,0-1.07,0l-1.26,2.5a.6.6,0,0,0,.42.86l2.75.53a.6.6,0,0,0,.65-.85l-.27-.55a9.44,9.44,0,0,0,4.51-6.72A.94.94,0,0,0,30.77,23.06Z"/></g></svg>